<?xml version="1.0" standalone="no"?>
<!DOCTYPE svg PUBLIC "-//W3C//DTD SVG 20010904//EN"
 "http://www.w3.org/TR/2001/REC-SVG-20010904/DTD/svg10.dtd">
<svg version="1.0" xmlns="http://www.w3.org/2000/svg"
 width="300.000000pt" height="300.000000pt" viewBox="0 0 300.000000 300.000000"
 preserveAspectRatio="xMidYMid meet">
<metadata>
Created by potrace 1.11, written by Peter Selinger 2001-2013
</metadata>
<g transform="translate(0.000000,300.000000) scale(0.100000,-0.100000)"
fill="#000000" stroke="none">
<path d="M1225 2835 c-262 -55 -474 -168 -669 -355 -275 -265 -416 -596 -416
-980 0 -368 125 -679 380 -944 265 -275 596 -416 980 -416 384 0 715 141 980
416 254 264 380 577 380 944 0 384 -141 715 -416 980 -198 191 -424 308 -689
360 -153 29 -379 27 -530 -5z m734 -664 c11 -19 -12 -55 -499 -796 -54 -82
-148 -226 -209 -320 l-112 -170 403 -3 c359 -2 404 -4 415 -18 9 -12 9 -22 2
-35 -9 -18 -31 -19 -459 -19 -425 0 -450 1 -459 18 -12 22 -14 17 558 887 90
138 186 284 212 325 l48 75 -402 3 c-359 2 -403 4 -414 18 -9 12 -9 22 -2 35
9 18 31 19 459 19 431 0 450 -1 459 -19z"/>
</g>
</svg>
